<?xml version="1.0" standalone="no"?>
<!DOCTYPE svg PUBLIC "-//W3C//DTD SVG 20010904//EN"
 "http://www.w3.org/TR/2001/REC-SVG-20010904/DTD/svg10.dtd">
<svg version="1.0" xmlns="http://www.w3.org/2000/svg"
 width="390.000000pt" height="390.000000pt" viewBox="0 0 390.000000 390.000000"
 preserveAspectRatio="xMidYMid meet">

<g transform="translate(0.000000,390.000000) scale(0.100000,-0.100000)"
fill="#003087" stroke="none">
<path d="M1791 3759 c1 -79 4 -147 5 -150 2 -3 16 -4 31 -2 27 4 28 7 28 61 0
56 1 57 30 60 49 5 82 22 94 48 16 36 14 69 -8 95 -17 21 -29 24 -101 27 l-82
4 3 -143z m123 95 c36 -36 6 -104 -46 -104 -15 0 -18 9 -18 60 0 57 1 60 24
60 14 0 32 -7 40 -16z"/>
<path d="M1598 3872 c-82 -14 -88 -16 -88 -39 0 -23 1 -23 30 -8 53 27 56 23
74 -89 9 -58 16 -117 16 -131 0 -21 4 -26 16 -21 9 3 25 6 35 6 16 0 19 5 14
20 -3 10 -14 68 -24 127 -21 120 -19 127 37 119 27 -4 32 -2 32 15 0 23 -17
23 -142 1z"/>
<path d="M2085 3880 c-72 -29 -106 -138 -68 -217 29 -63 135 -92 207 -58 100
48 101 229 1 271 -37 15 -108 18 -140 4z m140 -61 c41 -77 -8 -199 -80 -199
-61 0 -96 71 -75 152 20 72 61 104 113 86 15 -6 34 -23 42 -39z"/>
<path d="M1470 3849 c-21 -8 -64 -82 -98 -169 -2 -5 29 -34 67 -65 70 -57 71
-57 117 -49 l45 9 -63 42 c-35 23 -76 53 -92 66 l-30 24 43 76 c23 43 40 77
39 76 -2 0 -14 -5 -28 -10z"/>
<path d="M2316 3844 c-9 -24 -9 -24 27 -24 57 0 58 -5 20 -138 -20 -68 -34
-124 -32 -126 2 -2 16 -6 30 -9 26 -7 26 -5 59 118 34 132 43 143 86 110 25
-19 31 -19 37 4 4 16 -10 23 -104 50 -59 17 -110 31 -112 31 -3 0 -8 -7 -11
-16z"/>
<path d="M1287 3793 c-12 -3 -17 -11 -14 -21 18 -65 79 -257 81 -260 2 -1 16
0 30 4 17 4 25 11 22 20 -3 8 -22 70 -42 139 -21 69 -42 124 -48 124 -6 -1
-19 -3 -29 -6z"/>
<path d="M2570 3768 c0 -6 -23 -65 -51 -130 -28 -66 -49 -121 -48 -122 2 -2
47 -22 100 -45 l97 -42 48 30 c26 17 52 31 56 31 4 0 8 -28 8 -63 l0 -63 60
-41 59 -42 37 50 c19 27 41 49 47 49 7 0 32 -17 55 -38 l44 -38 -41 -49 c-23
-27 -41 -52 -41 -56 0 -8 39 -43 43 -38 2 2 39 48 83 103 43 54 83 105 88 112
7 9 3 18 -14 32 l-25 20 -35 -49 c-19 -27 -37 -48 -40 -48 -3 0 -26 19 -53 42
l-47 42 40 47 41 47 -26 17 c-15 10 -29 13 -34 8 -4 -5 -43 -53 -85 -106 -43
-54 -82 -98 -87 -98 -5 0 -9 17 -9 38 0 20 -3 60 -6 88 l-6 50 76 34 c61 26
74 35 65 46 -13 16 -45 18 -54 4 -4 -6 -24 -19 -46 -30 l-39 -20 0 65 c0 62
-1 65 -31 81 l-31 16 6 -89 7 -88 -63 -28 c-37 -17 -64 -24 -66 -18 -2 6 -14
11 -26 11 -34 0 -86 20 -86 33 0 6 7 30 16 54 l16 42 41 -20 c32 -17 41 -18
48 -7 14 21 11 24 -31 37 -45 13 -46 17 -23 66 19 39 34 39 85 3 16 -11 32
-16 38 -13 24 15 5 34 -67 63 -87 36 -93 37 -93 20z"/>
<path d="M1121 3724 c-46 -22 -71 -39 -68 -47 3 -6 28 -62 56 -124 28 -62 51
-117 51 -122 0 -8 143 48 168 65 2 1 1 12 -3 23 -6 20 -8 19 -47 -9 -55 -40
-70 -38 -90 13 -10 23 -18 45 -18 49 0 4 18 13 40 19 42 13 45 16 31 37 -7 11
-16 10 -48 -7 l-40 -20 -19 41 c-18 39 -18 41 1 54 11 8 36 17 57 20 33 6 36
9 27 25 -12 24 -9 24 -98 -17z"/>
<path d="M870 3581 c-12 -8 -10 -32 16 -166 28 -145 31 -154 48 -142 17 12 16
18 -8 114 -37 144 -37 143 42 87 37 -26 79 -58 93 -71 26 -24 28 -24 59 -8 18
9 28 20 24 24 -22 19 -246 171 -252 171 -4 0 -14 -4 -22 -9z"/>
<path d="M639 3407 c-24 -18 -51 -46 -61 -63 -16 -27 -16 -33 -4 -43 13 -11
17 -7 29 21 28 65 77 88 132 62 19 -9 35 -20 35 -24 0 -4 -22 -25 -50 -46 -54
-41 -56 -44 -38 -62 10 -10 23 -2 61 35 47 47 49 47 63 28 24 -33 28 -65 10
-101 -14 -31 -30 -43 -78 -58 -19 -6 -14 -36 6 -36 22 0 81 50 103 88 62 102
-8 232 -124 232 -31 0 -52 -8 -84 -33z"/>
<path d="M3240 3267 c-30 -29 -80 -73 -110 -99 -55 -46 -55 -46 -35 -68 13
-15 26 -19 44 -15 14 3 72 14 129 24 l103 19 -27 -29 c-15 -16 -52 -48 -81
-71 -58 -46 -62 -57 -35 -81 16 -14 22 -11 87 46 39 34 88 76 109 93 37 31 37
32 22 57 l-16 24 -103 -18 c-56 -10 -115 -21 -132 -24 l-30 -6 26 23 c14 13
54 46 87 75 l62 52 -23 25 -22 26 -55 -53z"/>
<path d="M1791 3270 c-430 -54 -813 -326 -1010 -718 -66 -131 -143 -392 -128
-434 2 -7 7 10 11 37 20 134 109 342 203 474 100 139 284 297 438 374 71 35
210 83 302 103 115 26 349 24 468 -4 296 -68 534 -220 712 -455 63 -83 143
-236 177 -339 32 -95 33 -110 5 -106 -17 2 -27 18 -43 68 -118 350 -397 612
-754 707 -86 23 -116 26 -267 26 -151 0 -181 -3 -267 -26 -367 -98 -647 -367
-761 -732 -13 -44 -27 -100 -31 -125 -5 -37 -2 -33 14 24 133 451 570 749
1022 696 337 -39 610 -231 758 -533 59 -121 62 -137 20 -137 -19 0 -30 5 -30
14 0 8 -20 54 -44 103 -105 208 -296 363 -522 424 -105 29 -297 31 -399 5
-306 -78 -547 -328 -609 -631 -12 -59 -12 -60 -51 -66 -22 -4 -114 -13 -204
-20 l-164 -13 6 -111 c19 -344 163 -658 411 -893 343 -324 837 -438 1286 -296
241 76 486 245 630 434 21 27 -3 7 -61 -51 -236 -236 -516 -354 -844 -354
-325 0 -609 118 -840 350 -222 221 -355 535 -355 838 l0 77 30 0 30 0 0 -80
c0 -412 306 -827 715 -967 375 -129 785 -44 1070 222 l60 56 -75 -55 c-208
-152 -466 -219 -706 -182 -456 69 -797 444 -821 904 l-6 102 32 0 c31 0 31 0
31 -52 0 -207 88 -415 240 -569 207 -210 492 -292 778 -224 61 14 226 84 218
92 -2 2 -39 -9 -82 -24 -72 -25 -92 -28 -214 -27 -121 0 -143 3 -215 28 -95
33 -161 69 -234 129 -164 137 -267 362 -259 567 l3 75 895 5 895 5 -3 65 c-10
217 -88 448 -217 641 -195 292 -488 490 -828 560 -117 23 -307 32 -416 19z
m144 -710 c112 -35 191 -85 285 -179 61 -61 97 -108 124 -159 21 -41 36 -75
34 -77 -5 -5 -1313 -123 -1317 -119 -9 9 33 133 67 199 43 81 149 198 229 251
65 43 156 81 238 100 85 20 251 12 340 -16z"/>
<path d="M292 3129 c-10 -15 -11 -24 -3 -32 26 -26 2 -64 -32 -51 -8 3 -20 -2
-27 -11 -18 -22 0 -38 34 -29 53 13 84 86 54 127 -12 16 -14 16 -26 -4z"/>
<path d="M382 3120 c-18 -29 -15 -44 22 -118 45 -90 67 -142 58 -142 -4 0 -45
27 -91 61 -77 56 -84 58 -97 42 -7 -10 -14 -23 -14 -28 0 -6 53 -47 118 -92
110 -74 120 -79 130 -62 18 29 16 38 -38 152 -27 58 -50 109 -50 112 0 3 41
-22 91 -56 l90 -62 17 24 c9 13 14 26 12 29 -3 3 -39 27 -80 54 -41 27 -91 62
-111 77 -20 16 -39 29 -41 29 -2 0 -9 -9 -16 -20z"/>
<path d="M3441 3041 c-29 -21 -58 -45 -63 -55 -14 -25 0 -72 33 -107 16 -18
28 -33 27 -34 -2 -1 -24 -14 -50 -29 -52 -29 -53 -31 -35 -63 12 -21 14 -20
122 47 61 38 117 73 125 78 12 8 12 12 -3 35 l-17 26 -51 -35 c-29 -19 -57
-33 -62 -31 -20 6 -50 55 -44 72 4 8 29 30 56 47 50 30 50 31 35 59 -8 16 -16
29 -17 28 -1 -1 -26 -18 -56 -38z"/>
<path d="M191 2810 c-5 -16 -6 -30 -2 -30 6 0 214 -97 252 -117 3 -2 11 8 17
22 12 27 9 45 -8 45 -6 0 -61 25 -125 55 -63 30 -116 55 -119 55 -2 0 -9 -13
-15 -30z"/>
<path d="M3628 2795 c-3 -3 -56 -28 -119 -55 -63 -27 -114 -53 -114 -57 0 -22
61 -156 73 -160 30 -12 35 15 9 46 -24 29 -43 69 -35 75 1 2 24 13 51 24 l47
21 12 -44 c13 -48 15 -50 38 -35 12 8 11 14 -7 48 l-22 38 45 22 45 22 10 -28
c6 -15 13 -39 16 -54 5 -27 26 -37 37 -19 3 5 -9 43 -26 85 -29 68 -44 87 -60
71z"/>
<path d="M256 2649 c-14 -17 -26 -37 -26 -44 0 -22 -18 -27 -47 -12 -57 29
-69 29 -82 1 -6 -15 -10 -28 -9 -29 2 -2 44 -19 94 -38 50 -19 109 -44 131
-56 l41 -20 21 55 c28 75 27 119 -4 149 -36 37 -86 34 -119 -6z m94 -49 c22
-22 23 -25 14 -57 l-6 -22 -52 20 c-63 25 -62 24 -48 54 15 32 63 34 92 5z"/>
<path d="M3561 2553 c-51 -25 -73 -67 -68 -133 2 -30 11 -71 21 -91 9 -20 16
-40 15 -45 -1 -5 -1 -22 0 -37 1 -22 5 -27 19 -23 9 3 44 8 77 11 l60 6 -67
-61 -68 -62 0 -69 c0 -60 3 -70 23 -83 123 -78 199 -128 196 -130 -2 -1 -52 0
-112 3 l-107 6 0 -32 0 -33 114 0 c62 0 128 -3 145 -6 29 -6 31 -5 31 25 0 29
-8 37 -102 97 -57 36 -107 70 -111 74 -5 4 41 5 102 2 l111 -5 0 32 0 31 -117
1 c-167 1 -167 1 -84 83 63 63 72 68 88 55 10 -7 39 -31 66 -52 l47 -39 0 26
c0 18 -9 32 -28 44 -64 40 -121 86 -116 93 3 5 26 9 52 9 61 0 77 10 68 45 -6
23 -11 26 -34 21 -78 -17 -257 -32 -225 -20 8 4 4 17 -13 41 -13 20 -24 48
-24 63 0 57 70 110 145 110 27 0 44 -8 67 -30 27 -28 30 -36 26 -79 -5 -45 -4
-47 19 -43 21 4 22 8 17 46 -10 67 -40 124 -76 146 -41 25 -110 26 -157 3z"/>
<path d="M77 2452 c-14 -15 -46 -125 -47 -159 0 -6 30 -16 69 -23 38 -6 101
-19 140 -29 l70 -18 11 49 c16 79 13 135 -10 158 -27 27 -84 27 -103 0 -13
-19 -14 -19 -36 10 -25 35 -69 40 -94 12z m75 -59 c19 -17 24 -58 9 -68 -6 -3
-28 -3 -50 1 -45 7 -52 24 -25 62 18 26 41 28 66 5z m136 -15 c11 -11 18 -88
7 -88 -2 0 -27 5 -55 11 -49 10 -51 12 -45 37 4 15 11 33 17 39 13 16 60 17
76 1z"/>
<path d="M35 2220 c-19 -21 -34 -82 -35 -142 l0 -38 53 0 c30 0 95 -3 145 -6
l92 -7 0 32 c0 31 0 31 -54 31 l-53 0 -6 53 c-5 39 -13 58 -32 75 -33 28 -85
29 -110 2z m97 -57 c10 -9 18 -29 18 -46 0 -26 -3 -29 -22 -23 -13 3 -40 6
-60 6 -32 0 -38 3 -38 22 0 50 63 76 102 41z"/>
<path d="M250 1964 c6 -14 10 -43 10 -65 l0 -40 -52 3 -53 3 3 43 c2 37 0 42
-18 42 -19 0 -21 -5 -18 -42 l3 -43 -49 -3 -49 -3 6 60 c5 55 3 61 -14 61 -17
0 -19 -8 -19 -90 l0 -91 145 3 145 3 0 93 c0 91 0 92 -25 92 -22 0 -24 -2 -15
-26z"/>
<path d="M2391 1826 c-53 -29 -67 -101 -27 -141 l25 -25 -31 -30 c-27 -27 -30
-36 -25 -71 7 -51 29 -76 80 -90 98 -26 187 21 187 99 0 31 -6 46 -28 67 l-29
27 24 24 c25 25 31 71 13 105 -24 44 -134 65 -189 35z m99 -26 c27 -14 35 -65
16 -95 -18 -27 -57 -33 -74 -12 -20 24 -18 79 4 101 18 19 28 20 54 6z m15
-180 c21 -24 24 -82 5 -105 -17 -20 -59 -19 -82 2 -23 20 -24 80 -1 105 21 24
55 23 78 -2z"/>
<path d="M2711 1826 c-53 -29 -67 -101 -27 -141 l25 -25 -30 -29 c-61 -62 -22
-152 73 -166 59 -9 122 9 147 42 34 42 24 109 -20 141 -17 12 -16 14 7 37 26
26 32 72 14 106 -24 44 -134 65 -189 35z m103 -31 c38 -38 23 -107 -25 -113
-34 -4 -53 21 -52 66 2 53 44 79 77 47z m8 -172 c20 -18 24 -73 8 -104 -13
-24 -57 -25 -82 -2 -11 10 -18 30 -18 51 0 62 51 92 92 55z"/>
<path d="M3050 1817 c-44 -29 -69 -74 -77 -135 -14 -121 28 -205 111 -217 78
-12 142 31 147 100 7 95 -21 135 -96 135 -26 0 -55 -5 -66 -10 -16 -9 -19 -7
-19 10 0 34 27 88 50 100 23 12 56 5 83 -18 16 -14 17 -13 17 15 0 36 -13 43
-74 43 -28 0 -55 -8 -76 -23z m88 -173 c17 -12 22 -25 22 -61 0 -110 -95 -110
-107 0 -5 38 -2 47 18 61 29 20 39 20 67 0z"/>
<path d="M2185 1650 l0 -180 36 0 37 0 -1 180 0 180 -36 0 -36 0 0 -180z"/>
<path d="M3540 1727 c0 -32 9 -43 95 -118 52 -45 95 -83 95 -84 0 -3 -147 24
-187 35 -34 9 -43 0 -43 -41 0 -14 7 -19 28 -19 15 0 77 -11 137 -24 115 -25
125 -23 125 20 0 13 -29 45 -84 93 -123 105 -123 102 1 76 59 -12 109 -22 109
-21 1 0 5 16 9 34 6 29 5 32 -19 32 -27 0 -226 37 -251 46 -12 5 -15 -2 -15
-29z"/>
<path d="M162 1718 c-74 -15 -136 -29 -139 -32 -5 -5 34 -226 41 -233 1 -2 66
9 144 24 141 28 141 28 135 53 -3 14 -7 27 -9 29 -2 2 -59 -8 -126 -22 -67
-14 -124 -24 -125 -23 -6 6 -25 117 -21 121 7 7 197 45 224 45 25 0 30 18 16
50 -6 13 -24 11 -140 -12z"/>
<path d="M3840 1620 c-24 -24 -27 -86 -4 -118 20 -28 31 -28 36 2 3 15 -2 27
-14 35 -10 6 -18 18 -18 26 0 15 34 38 42 29 3 -3 8 7 10 21 4 19 1 25 -13 25
-11 0 -28 -9 -39 -20z"/>
<path d="M3530 1290 c-26 -26 -26 -81 -2 -103 25 -22 75 -21 95 1 17 19 22 68
9 88 -10 15 -47 34 -66 34 -9 0 -25 -9 -36 -20z"/>
<path d="M212 1277 c-28 -29 -28 -67 -2 -95 29 -31 73 -29 99 4 27 35 26 59
-4 89 -30 31 -65 32 -93 2z"/>
<path d="M3009 1183 c-13 -16 -12 -17 4 -4 9 7 17 15 17 17 0 8 -8 3 -21 -13z"/>
<path d="M445 1041 c-46 -20 -92 -70 -101 -107 -17 -66 24 -160 88 -205 23
-17 32 -19 44 -8 12 10 11 14 -14 29 -43 26 -72 69 -72 105 0 66 85 144 157
145 45 0 90 -41 100 -91 7 -37 9 -39 27 -26 52 38 -76 177 -164 177 -14 0 -43
-9 -65 -19z"/>
<path d="M3367 1053 c-16 -16 -4 -23 38 -23 43 0 46 -2 74 -46 35 -57 46 -39
18 29 l-20 47 -52 0 c-28 0 -55 -3 -58 -7z"/>
<path d="M3206 983 l-19 -26 45 -139 46 -138 -28 22 c-15 13 -58 49 -94 82
-65 57 -67 58 -86 41 -28 -25 -25 -36 18 -70 20 -16 74 -62 119 -102 l81 -73
20 27 19 27 -43 130 c-24 71 -42 132 -39 134 2 3 43 -30 90 -73 l86 -78 25 24
24 25 -115 99 c-63 55 -115 103 -115 107 0 16 -15 7 -34 -19z"/>
<path d="M3340 987 c-23 -11 -22 -12 23 -15 44 -3 50 -6 76 -49 36 -57 48 -42
20 26 -21 48 -24 51 -58 50 -20 0 -47 -5 -61 -12z"/>
<path d="M604 765 l-111 -114 24 -23 24 -22 102 102 103 102 48 -49 48 -49
-101 -104 -101 -103 25 -24 c13 -14 26 -23 27 -20 2 2 52 55 113 117 l110 112
-95 95 c-52 52 -97 95 -100 95 -3 0 -55 -52 -116 -115z"/>
<path d="M2955 717 c-33 -29 -77 -65 -97 -82 -32 -27 -35 -32 -23 -48 13 -17
15 -16 47 19 l34 37 89 -112 c49 -61 92 -111 95 -111 3 1 15 9 28 20 l23 19
-88 106 c-48 58 -88 111 -88 117 0 7 16 22 37 33 31 18 34 23 23 38 -7 9 -14
17 -16 16 -2 0 -31 -23 -64 -52z"/>
<path d="M903 604 c-56 -28 -113 -118 -113 -180 0 -30 7 -44 40 -76 35 -32 48
-38 84 -38 53 0 90 26 106 74 23 69 -37 146 -114 146 l-41 1 24 19 c34 29 69
25 131 -14 51 -32 56 -33 72 -19 10 9 18 21 18 27 0 14 -128 76 -155 76 -11 0
-34 -8 -52 -16z m48 -114 c41 -22 6 -123 -47 -136 -37 -9 -58 7 -62 45 -3 25
4 39 31 66 38 38 48 41 78 25z"/>
<path d="M2730 551 c-43 -13 -84 -38 -112 -68 -23 -25 -25 -30 -13 -46 13 -18
14 -17 29 12 34 64 115 80 168 32 l32 -29 -64 -32 c-79 -40 -74 -34 -60 -60
11 -21 11 -21 48 8 20 15 49 35 63 44 25 16 27 16 38 -8 35 -77 -10 -151 -100
-164 -35 -5 -37 -6 -24 -24 18 -23 45 -17 107 24 50 33 88 95 88 143 0 68 -59
150 -119 167 -41 11 -46 11 -81 1z"/>
<path d="M1090 384 c-36 -75 -66 -139 -68 -144 -2 -5 10 -16 27 -24 l29 -16
31 65 c17 36 45 94 62 130 17 36 37 65 44 65 7 0 34 -15 58 -34 44 -34 57 -33
57 5 0 9 -152 90 -167 88 -5 0 -37 -61 -73 -135z"/>
<path d="M1336 415 c-10 -26 -8 -28 21 -22 66 13 133 -44 133 -113 0 -36 -7
-37 -84 -5 -33 13 -61 23 -62 22 -1 -1 -4 -12 -8 -23 -5 -18 -1 -22 26 -28
120 -24 130 -36 74 -92 -24 -24 -43 -34 -65 -34 -41 0 -87 24 -102 52 l-12 22
-9 -24 c-13 -35 -5 -46 48 -64 134 -46 227 -1 256 122 10 47 9 55 -13 99 -27
52 -81 87 -155 98 -33 5 -43 3 -48 -10z"/>
<path d="M2442 413 c-5 -10 -12 -91 -16 -180 l-6 -162 22 8 c22 8 22 12 19
141 -2 85 1 131 7 129 16 -6 143 -151 155 -176 6 -13 14 -23 18 -23 7 0 57 20
67 26 2 1 -47 59 -108 128 -112 125 -140 144 -158 109z"/>
<path d="M1560 339 c0 -18 4 -20 38 -15 61 10 62 6 41 -144 -10 -74 -18 -138
-19 -141 0 -4 15 -9 33 -11 l34 -4 11 112 c18 171 20 177 51 171 14 -3 36 -8
49 -12 18 -6 22 -4 22 14 0 23 -6 25 -129 41 -121 15 -131 14 -131 -11z"/>
<path d="M1830 327 c0 -2 34 -60 75 -128 41 -68 75 -127 75 -131 0 -18 -47
-30 -69 -18 -21 11 -22 10 -19 -17 4 -34 33 -41 77 -18 33 16 66 72 106 180
13 33 31 77 39 98 l16 37 -30 0 c-23 0 -30 -5 -30 -19 0 -24 -39 -153 -50
-164 -8 -9 -92 121 -104 161 -6 18 -15 22 -47 22 -21 0 -39 -2 -39 -3z"/>
<path d="M2290 244 c-11 -25 -20 -49 -20 -53 0 -14 66 -71 83 -71 15 0 12 7
-14 39 -32 40 -33 47 -13 114 11 37 -18 14 -36 -29z"/>
<path d="M2244 272 c-6 -4 -19 -29 -29 -56 l-19 -49 40 -33 c55 -47 73 -43 33
7 -31 39 -32 43 -21 87 11 52 11 54 -4 44z"/>
</g>
</svg>
